<?xml version="1.0" encoding="UTF-8"?>
<svg id="Lager_1" xmlns="http://www.w3.org/2000/svg" version="1.1" viewBox="0 0 680.31 680.31">
  <!-- Generator: Adobe Illustrator 29.8.1, SVG Export Plug-In . SVG Version: 2.1.1 Build 2)  -->
  <g>
    <path d="M119.51,318.51h-38.43v-51.54h37.23v6.12h-30.41v15.75h28.44v6.12h-28.44v17.44h31.61v6.12Z"/>
    <path d="M160.99,318.51h-31.89v-51.54h6.82v45.42h25.07v6.12Z"/>
    <path d="M211.26,318.51h-9l-18.28-25.7-8.02,7.84v17.86h-6.82v-51.54h6.82v25.56l25.14-25.56h9.21l-21.59,21.16,22.54,30.38Z"/>
    <path d="M239.49,266.09c7.22,0,13.12,2.44,17.72,7.31,4.59,4.88,6.89,11.32,6.89,19.34s-2.3,14.46-6.89,19.34c-4.59,4.88-10.5,7.31-17.72,7.31s-13.17-2.44-17.79-7.33c-4.62-4.89-6.93-11.33-6.93-19.32s2.31-14.46,6.93-19.34c4.62-4.87,10.55-7.31,17.79-7.31ZM239.42,313.55c5.16,0,9.38-1.83,12.67-5.48,3.29-3.66,4.94-8.77,4.94-15.33s-1.64-11.67-4.92-15.33c-3.28-3.66-7.47-5.48-12.55-5.48s-9.43,1.83-12.74,5.48c-3.32,3.66-4.97,8.77-4.97,15.33s1.65,11.64,4.96,15.31c3.3,3.67,7.51,5.5,12.62,5.5Z"/>
    <path d="M313.64,318.51h-7l-27-40.68v40.68h-6.47v-51.54h6.96l27,40.68v-40.68h6.5v51.54Z"/>
    <path d="M344.61,319.39c-7.27,0-12.7-1.63-16.29-4.89-3.6-3.26-5.49-7.44-5.68-12.55h6.57c.35,3.84,1.95,6.69,4.8,8.53,2.85,1.84,6.29,2.76,10.32,2.76,3.82,0,6.9-.79,9.23-2.36,2.33-1.57,3.5-3.7,3.5-6.4,0-2.84-1.21-4.9-3.62-6.19-2.41-1.29-6.57-2.56-12.46-3.81-5.89-1.25-10.12-2.99-12.69-5.22-2.57-2.23-3.85-5.19-3.85-8.89,0-4.17,1.67-7.59,5.01-10.27s7.78-4.01,13.31-4.01c5.81,0,10.5,1.35,14.06,4.04,3.56,2.7,5.45,6.5,5.66,11.43h-6.64c-.68-6.23-4.95-9.35-12.8-9.35-3.8,0-6.74.72-8.82,2.14-2.09,1.43-3.13,3.33-3.13,5.7,0,2.16.84,3.77,2.51,4.85,1.68,1.08,4.8,2.12,9.39,3.13,4.58,1.01,8.22,2,10.92,2.99s5,2.51,6.93,4.59,2.88,4.86,2.88,8.35c0,4.43-1.76,8.11-5.29,11.04-3.53,2.93-8.13,4.39-13.8,4.39Z"/>
    <path d="M393.41,319.39c-5.98,0-10.45-1.16-13.41-3.48s-4.84-5.05-5.62-8.19c-.79-3.14-1.18-6.79-1.18-10.93v-29.81h6.82v29.71c0,6.77,1.14,11.23,3.41,13.36,2.27,2.13,5.6,3.2,9.98,3.2s7.71-1.07,9.98-3.2c2.27-2.13,3.41-6.59,3.41-13.36v-29.71h6.86v29.81c0,6.23-.74,10.83-2.23,13.78s-3.73,5.16-6.73,6.63-6.76,2.2-11.29,2.2Z"/>
    <path d="M457.08,318.51h-31.89v-51.54h6.82v45.42h25.07v6.12Z"/>
    <path d="M501.86,273.09h-17.05v45.42h-6.86v-45.42h-16.91v-6.12h40.82v6.12Z"/>
    <path d="M547.64,318.51h-38.43v-51.54h37.23v6.12h-30.41v15.75h28.44v6.12h-28.44v17.44h31.61v6.12Z"/>
    <path d="M597.7,318.51h-7l-27-40.68v40.68h-6.47v-51.54h6.96l27,40.68v-40.68h6.5v51.54Z"/>
  </g>
  <g>
    <path d="M148.32,381.34h-4.57v-34.36h4.57v34.36Z"/>
    <path d="M194.89,381.34h-25.62v-34.36h24.82v4.08h-20.27v10.5h18.96v4.08h-18.96v11.62h21.07v4.08Z"/>
    <path d="M214.25,381.92c-4.84,0-8.46-1.09-10.86-3.26s-3.66-4.96-3.79-8.37h4.38c.23,2.56,1.3,4.46,3.2,5.68s4.19,1.84,6.88,1.84c2.55,0,4.6-.52,6.15-1.57s2.33-2.47,2.33-4.27c0-1.89-.8-3.27-2.41-4.12s-4.38-1.71-8.31-2.54-6.75-2-8.46-3.48-2.57-3.46-2.57-5.93c0-2.78,1.11-5.06,3.34-6.84s5.18-2.67,8.87-2.67c3.88,0,7,.9,9.38,2.7s3.63,4.34,3.77,7.62h-4.43c-.45-4.16-3.3-6.23-8.53-6.23-2.53,0-4.49.48-5.88,1.43s-2.09,2.22-2.09,3.8c0,1.44.56,2.52,1.68,3.23s3.2,1.41,6.26,2.09,5.48,1.34,7.28,1.99,3.34,1.68,4.62,3.06,1.92,3.24,1.92,5.57c0,2.95-1.18,5.41-3.53,7.36s-5.42,2.93-9.2,2.93Z"/>
    <path d="M261.38,381.34h-6l-12.19-17.13-5.34,5.23v11.91h-4.55v-34.36h4.55v17.04l16.76-17.04h6.14l-14.39,14.11,15.02,20.25Z"/>
    <path d="M270.45,381.34h-4.57v-34.36h4.57v34.36Z"/>
    <path d="M299.92,381.34h-21.26v-34.36h4.55v30.28h16.71v4.08Z"/>
    <path d="M318.31,381.92c-4.84,0-8.46-1.09-10.86-3.26s-3.66-4.96-3.79-8.37h4.38c.23,2.56,1.3,4.46,3.2,5.68s4.19,1.84,6.88,1.84c2.55,0,4.6-.52,6.15-1.57s2.33-2.47,2.33-4.27c0-1.89-.8-3.27-2.41-4.12s-4.38-1.71-8.31-2.54-6.75-2-8.46-3.48-2.57-3.46-2.57-5.93c0-2.78,1.11-5.06,3.34-6.84s5.18-2.67,8.87-2.67c3.88,0,7,.9,9.38,2.7s3.63,4.34,3.77,7.62h-4.43c-.45-4.16-3.3-6.23-8.53-6.23-2.53,0-4.49.48-5.88,1.43s-2.09,2.22-2.09,3.8c0,1.44.56,2.52,1.68,3.23s3.2,1.41,6.26,2.09,5.48,1.34,7.28,1.99,3.34,1.68,4.62,3.06,1.92,3.24,1.92,5.57c0,2.95-1.18,5.41-3.53,7.36s-5.42,2.93-9.2,2.93Z"/>
    <path d="M361.79,351.06h-11.37v30.28h-4.57v-30.28h-11.27v-4.08h27.21v4.08Z"/>
    <path d="M380.17,381.92c-3.98,0-6.96-.77-8.94-2.32s-3.23-3.37-3.75-5.46-.79-4.52-.79-7.29v-19.88h4.55v19.8c0,4.52.76,7.48,2.27,8.91s3.73,2.13,6.66,2.13,5.14-.71,6.66-2.13,2.27-4.39,2.27-8.91v-19.8h4.57v19.88c0,4.16-.5,7.22-1.49,9.19s-2.49,3.44-4.49,4.42-4.51,1.46-7.52,1.46Z"/>
    <path d="M428.33,381.34h-4.66l-18-27.12v27.12h-4.31v-34.36h4.64l18,27.12v-27.12h4.34v34.36Z"/>
    <path d="M464.24,381.34h-5.13l-3.98-10.45h-14.39l-3.8,10.45h-4.8l13.2-34.36h4.9l14.02,34.36ZM453.78,367.27l-6.05-15.94-5.77,15.94h11.81Z"/>
    <path d="M509,381.34h-5.13l-3.98-10.45h-14.39l-3.8,10.45h-4.8l13.2-34.36h4.9l14.02,34.36ZM498.55,367.27l-6.05-15.94-5.77,15.94h11.81Z"/>
    <path d="M538.49,371.35c0,3.22-1.09,5.69-3.28,7.41s-5.37,2.58-9.54,2.58h-12.87v-34.36h12.23c3.66,0,6.53.78,8.62,2.34s3.14,3.7,3.14,6.42c0,3.31-1.65,5.77-4.95,7.36,2.22.56,3.88,1.6,4.98,3.11s1.65,3.22,1.65,5.14ZM517.34,361.37h7.64c2.52,0,4.37-.4,5.55-1.21s1.78-2.14,1.78-4.02c0-1.69-.58-2.96-1.73-3.81s-3.16-1.28-6.02-1.28h-7.22v10.31ZM517.34,377.26h8.27c5.44,0,8.16-1.97,8.16-5.91,0-2.05-.63-3.54-1.89-4.49s-3.54-1.42-6.86-1.42h-7.69v11.81Z"/>
  </g>
  <rect x="81.08" y="362.04" width="50.36" height="4.83"/>
  <rect x="547.34" y="362.04" width="50.36" height="4.83"/>
</svg>